<svg id="Слой_1" data-name="Слой 1" xmlns="http://www.w3.org/2000/svg" xmlns:xlink="http://www.w3.org/1999/xlink" viewBox="0 0 1080 1080"><defs><style>.cls-1,.cls-2{fill:#e30613;}.cls-1,.cls-4,.cls-6,.cls-7{stroke:#000;stroke-linecap:round;stroke-linejoin:round;stroke-width:7px;}.cls-3{clip-path:url(#clip-path);}.cls-4{fill:#cc2639;}.cls-5{fill:#c1272d;}.cls-6{fill:none;}.cls-7{fill:#009640;}</style><clipPath id="clip-path"><path class="cls-1" d="M813,754.86c-39.69,14.74-86.6,36.4-110.57,62.88-25.38,28-46,60.41-59.41,84-.45-.36-.89-.71-1.33-1.08,0,0-33.28-24.46-77-97-28-46.42-77.55-77.6-109.64-94,19-58.66,13.69-142.21,13.69-142.21C453,561,398,534,362.83,516.58c5.7-33.26,13.06-79.83,14.08-103.51V245.83H594.7V364s2.16,140.05,28.63,183.85S787.86,725.05,787.86,725.05v0A114.69,114.69,0,0,1,813,754.86Z"/></clipPath></defs><path class="cls-2" d="M813,754.86c-39.69,14.74-86.6,36.4-110.57,62.88-25.38,28-46,60.41-59.41,84-.45-.36-.89-.71-1.33-1.08,0,0-33.28-24.46-77-97-28-46.42-77.55-77.6-109.64-94,19-58.66,13.69-142.21,13.69-142.21C453,561,398,534,362.83,516.58c5.7-33.26,13.06-79.83,14.08-103.51V245.83H594.7V364s2.16,140.05,28.63,183.85S787.86,725.05,787.86,725.05v0A114.69,114.69,0,0,1,813,754.86Z"/><g class="cls-3"><path class="cls-4" d="M813,754.86c-39.69,14.74-86.6,36.4-110.57,62.88-25.38,28-46,60.41-59.41,84-.45-.36-.89-.71-1.33-1.08,0,0-33.28-24.46-77-97-28-46.42-77.55-77.6-109.64-94,19-58.66,13.69-142.21,13.69-142.21C453,561,398,534,362.83,516.58c5.7-33.26,13.06-79.83,14.08-103.51V245.83H594.7V364s2.16,140.05,28.63,183.85S787.86,725.05,787.86,725.05v0A114.69,114.69,0,0,1,813,754.86Z"/><circle class="cls-5" cx="315.92" cy="384.29" r="17.11"/><circle cx="502.91" cy="248.14" r="17.11"/><circle cx="409.42" cy="316.22" r="17.11"/><circle cx="378.68" cy="470.49" r="17.11"/><circle cx="565.67" cy="334.34" r="17.11"/><circle cx="472.18" cy="402.41" r="17.11"/><circle cx="441.44" cy="556.68" r="17.11"/><circle cx="598.3" cy="417.47" r="17.11"/><circle cx="534.94" cy="488.61" r="17.11"/><circle cx="463.47" cy="673.22" r="17.11"/><circle cx="618.32" cy="533.69" r="17.11"/><circle cx="542.18" cy="601.76" r="17.11"/><circle cx="515.87" cy="752.97" r="17.11"/><circle cx="688.86" cy="626.23" r="17.11"/><circle cx="604.94" cy="687.96" r="17.11"/><circle cx="587.91" cy="840.81" r="17.11"/><circle cx="761.2" cy="706.08" r="17.11"/><circle cx="667.7" cy="774.15" r="17.11"/></g><path class="cls-6" d="M813,754.86c-39.69,14.74-86.6,36.4-110.57,62.88-25.38,28-46,60.41-59.41,84-.45-.36-.89-.71-1.33-1.08,0,0-33.28-24.46-77-97-28-46.42-77.55-77.6-109.64-94,19-58.66,13.69-142.21,13.69-142.21C453,561,398,534,362.83,516.58c5.7-33.26,13.06-79.83,14.08-103.51V245.83H594.7V364s2.16,140.05,28.63,183.85S787.86,725.05,787.86,725.05v0A114.69,114.69,0,0,1,813,754.86Z"/><path class="cls-7" d="M455.09,709.66a302.86,302.86,0,0,0-30.56-13.83l0,0c-43.31-12.86-75-54.27-75-103.41a111.27,111.27,0,0,1,6.58-37.79s3-16.12,6.77-38C398,534,453,561,468.78,567.45,468.78,567.45,474.08,651,455.09,709.66Z"/><path class="cls-7" d="M828.59,812.51A114.18,114.18,0,0,1,643,901.75c13.43-23.6,34-56,59.41-84,24-26.48,70.88-48.14,110.57-62.88A113.68,113.68,0,0,1,828.59,812.51Z"/><rect class="cls-7" x="376.91" y="170.9" width="217.79" height="74.93"/><path class="cls-6" d="M813,754.86c-39.69,14.74-86.6,36.4-110.57,62.88-25.38,28-46,60.41-59.41,84-.45-.36-.89-.71-1.33-1.08,0,0-33.28-24.46-77-97-28-46.42-77.55-77.6-109.64-94,19-58.66,13.69-142.21,13.69-142.21C453,561,398,534,362.83,516.58c5.7-33.26,13.06-79.83,14.08-103.51V245.83H594.7V364s2.16,140.05,28.63,183.85S787.86,725.05,787.86,725.05v0A114.69,114.69,0,0,1,813,754.86Z"/></svg>