<svg id="Слой_1" data-name="Слой 1" xmlns="http://www.w3.org/2000/svg" xmlns:xlink="http://www.w3.org/1999/xlink" viewBox="0 0 1080 1080"><defs><style>.cls-1,.cls-2{fill:#e30613;}.cls-1,.cls-4,.cls-7,.cls-8{stroke:#000;stroke-linecap:round;stroke-linejoin:round;stroke-width:7px;}.cls-3{clip-path:url(#clip-path);}.cls-4{fill:#005890;}.cls-5{fill:#c1272d;}.cls-6,.cls-8{fill:#fddb6e;}.cls-7{fill:none;}</style><clipPath id="clip-path"><path class="cls-1" d="M799.65,746c-39.68,14.74-86.59,36.4-110.57,62.88-25.38,28-46,60.41-59.4,84-.46-.36-.9-.71-1.33-1.08,0,0-33.28-24.46-77-97-28-46.42-77.54-77.6-109.64-94,19-58.66,13.69-142.21,13.69-142.21-15.82-6.46-70.8-33.46-105.95-50.87,5.7-33.26,13.07-79.83,14.08-103.51V237H581.35V355.19S583.52,495.24,610,539,774.52,716.22,774.52,716.22l0,0A114.69,114.69,0,0,1,799.65,746Z"/></clipPath></defs><path class="cls-2" d="M799.65,746c-39.68,14.74-86.59,36.4-110.57,62.88-25.38,28-46,60.41-59.4,84-.46-.36-.9-.71-1.33-1.08,0,0-33.28-24.46-77-97-28-46.42-77.54-77.6-109.64-94,19-58.66,13.69-142.21,13.69-142.21-15.82-6.46-70.8-33.46-105.95-50.87,5.7-33.26,13.07-79.83,14.08-103.51V237H581.35V355.19S583.52,495.24,610,539,774.52,716.22,774.52,716.22l0,0A114.69,114.69,0,0,1,799.65,746Z"/><g class="cls-3"><path class="cls-4" d="M799.65,746c-39.68,14.74-86.59,36.4-110.57,62.88-25.38,28-46,60.41-59.4,84-.46-.36-.9-.71-1.33-1.08,0,0-33.28-24.46-77-97-28-46.42-77.54-77.6-109.64-94,19-58.66,13.69-142.21,13.69-142.21-15.82-6.46-70.8-33.46-105.95-50.87,5.7-33.26,13.07-79.83,14.08-103.51V237H581.35V355.19S583.52,495.24,610,539,774.52,716.22,774.52,716.22l0,0A114.69,114.69,0,0,1,799.65,746Z"/><circle class="cls-5" cx="302.58" cy="375.46" r="17.11"/><circle class="cls-6" cx="489.57" cy="239.31" r="17.11"/><circle class="cls-6" cx="396.07" cy="307.39" r="17.11"/><circle class="cls-6" cx="365.34" cy="461.66" r="17.11"/><circle class="cls-6" cx="552.33" cy="325.51" r="17.11"/><circle class="cls-6" cx="458.83" cy="393.58" r="17.11"/><circle class="cls-6" cx="428.1" cy="547.85" r="17.11"/><circle class="cls-6" cx="584.96" cy="408.64" r="17.11"/><circle class="cls-6" cx="521.59" cy="479.78" r="17.11"/><circle class="cls-6" cx="450.13" cy="664.39" r="17.11"/><circle class="cls-6" cx="604.97" cy="524.86" r="17.11"/><circle class="cls-6" cx="528.84" cy="592.93" r="17.11"/><circle class="cls-6" cx="502.53" cy="744.14" r="17.11"/><circle class="cls-6" cx="675.51" cy="617.4" r="17.11"/><circle class="cls-6" cx="591.6" cy="679.13" r="17.11"/><circle class="cls-6" cx="574.57" cy="831.98" r="17.11"/><circle class="cls-6" cx="747.85" cy="697.25" r="17.11"/><circle class="cls-6" cx="654.36" cy="765.32" r="17.11"/></g><path class="cls-7" d="M799.65,746c-39.68,14.74-86.59,36.4-110.57,62.88-25.38,28-46,60.41-59.4,84-.46-.36-.9-.71-1.33-1.08,0,0-33.28-24.46-77-97-28-46.42-77.54-77.6-109.64-94,19-58.66,13.69-142.21,13.69-142.21-15.82-6.46-70.8-33.46-105.95-50.87,5.7-33.26,13.07-79.83,14.08-103.51V237H581.35V355.19S583.52,495.24,610,539,774.52,716.22,774.52,716.22l0,0A114.69,114.69,0,0,1,799.65,746Z"/><path class="cls-8" d="M441.74,700.83A302.86,302.86,0,0,0,411.18,687l0,0c-43.3-12.86-75-54.27-75-103.41a110.94,110.94,0,0,1,6.57-37.79s3-16.12,6.77-38c35.15,17.41,90.13,44.41,106,50.87C455.43,558.62,460.73,642.17,441.74,700.83Z"/><path class="cls-8" d="M815.25,803.68a114.18,114.18,0,0,1-185.57,89.24c13.43-23.6,34-56,59.4-84,24-26.48,70.89-48.14,110.57-62.88A113.68,113.68,0,0,1,815.25,803.68Z"/><rect class="cls-8" x="363.56" y="162.07" width="217.79" height="74.93"/><path class="cls-7" d="M799.65,746c-39.68,14.74-86.59,36.4-110.57,62.88-25.38,28-46,60.41-59.4,84-.46-.36-.9-.71-1.33-1.08,0,0-33.28-24.46-77-97-28-46.42-77.54-77.6-109.64-94,19-58.66,13.69-142.21,13.69-142.21-15.82-6.46-70.8-33.46-105.95-50.87,5.7-33.26,13.07-79.83,14.08-103.51V237H581.35V355.19S583.52,495.24,610,539,774.52,716.22,774.52,716.22l0,0A114.69,114.69,0,0,1,799.65,746Z"/></svg>