<svg id="Слой_1" data-name="Слой 1" xmlns="http://www.w3.org/2000/svg" xmlns:xlink="http://www.w3.org/1999/xlink" viewBox="0 0 1080 1080"><defs><style>.cls-1,.cls-6{fill:none;}.cls-2{clip-path:url(#clip-path);}.cls-3{fill:#009640;stroke-width:7.07px;}.cls-3,.cls-5,.cls-6{stroke:#000;stroke-linecap:round;stroke-linejoin:round;}.cls-4,.cls-5{fill:#ffed00;}.cls-5,.cls-6{stroke-width:7px;}</style><clipPath id="clip-path"><path class="cls-1" d="M807.45,771c-39.69,14.74-86.6,36.4-110.58,62.88-25.37,28-46,60.41-59.4,84-.45-.36-.89-.71-1.33-1.08,0,0-33.28-24.46-77-97-27.95-46.42-77.54-77.6-109.63-94,19-58.66,13.68-142.21,13.68-142.21-15.82-6.46-70.8-33.46-105.94-50.87,5.69-33.26,13.06-79.83,14.08-103.51V262H589.15V380.15S591.31,520.2,617.78,564,782.31,741.18,782.31,741.18l0,0A114.73,114.73,0,0,1,807.45,771Z"/></clipPath></defs><g class="cls-2"><path class="cls-3" d="M807.45,771c-39.69,14.74-86.6,36.4-110.58,62.88-25.37,28-46,60.41-59.4,84-.45-.36-.89-.71-1.33-1.08,0,0-33.28-24.46-77-97-27.95-46.42-77.54-77.6-109.63-94,19-58.66,13.68-142.21,13.68-142.21-15.82-6.46-70.8-33.46-105.94-50.87,5.69-33.26,13.06-79.83,14.08-103.51V262H589.15V380.15S591.31,520.2,617.78,564,782.31,741.18,782.31,741.18l0,0A114.73,114.73,0,0,1,807.45,771Z"/><rect class="cls-4" x="335.01" y="300.28" width="284.94" height="34.47"/><rect class="cls-4" x="335.01" y="373.06" width="284.94" height="34.47"/><rect class="cls-4" x="337.78" y="452.89" width="284.94" height="34.47"/><rect class="cls-4" x="345.13" y="538.06" width="284.94" height="34.47" transform="translate(-71.73 72.33) rotate(-7.9)"/><rect class="cls-4" x="388.98" y="627.86" width="284.94" height="34.47" transform="translate(-200.58 241.71) rotate(-21.66)"/><rect class="cls-4" x="446.68" y="698.18" width="284.94" height="34.47" transform="translate(-278.77 390.42) rotate(-30)"/><rect class="cls-4" x="514.33" y="764.96" width="284.94" height="34.47" transform="translate(-321.49 488.64) rotate(-33.28)"/></g><path class="cls-5" d="M449.54,725.79A303.5,303.5,0,0,0,419,712l0,0c-43.3-12.86-75-54.27-75-103.41a111.29,111.29,0,0,1,1.7-19.47,110.18,110.18,0,0,1,4.87-18.32s3-16.12,6.78-38c35.14,17.41,90.12,44.41,105.94,50.87C463.22,583.58,468.52,667.13,449.54,725.79Z"/><path class="cls-5" d="M823,828.64a114.18,114.18,0,0,1-185.57,89.24c13.43-23.6,34-56,59.4-84,24-26.48,70.89-48.14,110.58-62.88A113.68,113.68,0,0,1,823,828.64Z"/><rect class="cls-5" x="371.36" y="187.03" width="217.79" height="74.93"/><path class="cls-6" d="M807.45,771c-39.69,14.74-86.6,36.4-110.58,62.88-25.37,28-46,60.41-59.4,84-.45-.36-.89-.71-1.33-1.08,0,0-33.28-24.46-77-97-27.95-46.42-77.54-77.6-109.63-94,19-58.66,13.68-142.21,13.68-142.21-15.82-6.46-70.8-33.46-105.94-50.87,5.69-33.26,13.06-79.83,14.08-103.51V262H589.15V380.15S591.31,520.2,617.78,564,782.31,741.18,782.31,741.18l0,0A114.73,114.73,0,0,1,807.45,771Z"/></svg>