<svg id="Слой_1" data-name="Слой 1" xmlns="http://www.w3.org/2000/svg" xmlns:xlink="http://www.w3.org/1999/xlink" viewBox="0 0 1080 1080"><defs><style>.cls-1,.cls-6{fill:none;}.cls-2{clip-path:url(#clip-path);}.cls-3{fill:#fefbf2;stroke-width:7.07px;}.cls-3,.cls-5,.cls-6{stroke:#000;stroke-linecap:round;stroke-linejoin:round;}.cls-4,.cls-5{fill:#e6007e;}.cls-5,.cls-6{stroke-width:7px;}</style><clipPath id="clip-path"><path class="cls-1" d="M799.65,746c-39.68,14.74-86.59,36.4-110.57,62.88-25.38,28-46,60.41-59.4,84-.46-.36-.9-.71-1.33-1.08,0,0-33.28-24.46-77-97-28-46.42-77.54-77.6-109.64-94,19-58.66,13.69-142.21,13.69-142.21-15.82-6.46-70.8-33.46-105.95-50.87,5.7-33.26,13.07-79.83,14.08-103.51V237H581.35V355.19S583.52,495.24,610,539,774.52,716.22,774.52,716.22l0,0A114.69,114.69,0,0,1,799.65,746Z"/></clipPath></defs><g class="cls-2"><path class="cls-3" d="M799.65,746c-39.68,14.74-86.59,36.4-110.57,62.88-25.38,28-46,60.41-59.4,84-.46-.36-.9-.71-1.33-1.08,0,0-33.28-24.46-77-97-28-46.42-77.54-77.6-109.64-94,19-58.66,13.69-142.21,13.69-142.21-15.82-6.46-70.8-33.46-105.95-50.87,5.7-33.26,13.07-79.83,14.08-103.51V237H581.35V355.19S583.52,495.24,610,539,774.52,716.22,774.52,716.22l0,0A114.69,114.69,0,0,1,799.65,746Z"/><rect class="cls-4" x="327.21" y="275.32" width="284.94" height="34.47"/><rect class="cls-4" x="327.21" y="348.1" width="284.94" height="34.47"/><rect class="cls-4" x="329.99" y="427.93" width="284.94" height="34.47"/><rect class="cls-4" x="337.34" y="513.1" width="284.94" height="34.47" transform="translate(-68.37 71.02) rotate(-7.9)"/><rect class="cls-4" x="381.18" y="602.9" width="284.94" height="34.47" transform="translate(-191.92 237.07) rotate(-21.66)"/><rect class="cls-4" x="438.89" y="673.22" width="284.94" height="34.47" transform="translate(-267.34 383.18) rotate(-30)"/><rect class="cls-4" x="506.54" y="740" width="284.94" height="34.47" transform="translate(-309.07 480.27) rotate(-33.28)"/></g><path class="cls-5" d="M441.74,700.83A302.86,302.86,0,0,0,411.18,687l0,0c-43.3-12.86-75-54.27-75-103.41a110.94,110.94,0,0,1,6.57-37.79s3-16.12,6.77-38c35.15,17.41,90.13,44.41,106,50.87C455.43,558.62,460.73,642.17,441.74,700.83Z"/><path class="cls-5" d="M815.25,803.68a114.18,114.18,0,0,1-185.57,89.24c13.43-23.6,34-56,59.4-84,24-26.48,70.89-48.14,110.57-62.88A113.68,113.68,0,0,1,815.25,803.68Z"/><rect class="cls-5" x="363.56" y="162.07" width="217.79" height="74.93"/><path class="cls-6" d="M799.65,746c-39.68,14.74-86.59,36.4-110.57,62.88-25.38,28-46,60.41-59.4,84-.46-.36-.9-.71-1.33-1.08,0,0-33.28-24.46-77-97-28-46.42-77.54-77.6-109.64-94,19-58.66,13.69-142.21,13.69-142.21-15.82-6.46-70.8-33.46-105.95-50.87,5.7-33.26,13.07-79.83,14.08-103.51V237H581.35V355.19S583.52,495.24,610,539,774.52,716.22,774.52,716.22l0,0A114.69,114.69,0,0,1,799.65,746Z"/></svg>